<svg xmlns="http://www.w3.org/2000/svg" xmlns:svg="http://www.w3.org/2000/svg" xmlns:xlink="http://www.w3.org/1999/xlink" id="svg87" width="375" height="375" version="1.0" viewBox="0 0 375 375"><defs id="defs29"><g id="d"><path id="path2" d="M 28.214844 -23.324219 C 31.800781 -25.039062 33.765625 -28.5625 33.765625 -32.847656 C 33.765625 -39.828125 28.53125 -44.683594 20.566406 -44.683594 L 7.011719 -44.683594 L 7.011719 0 L 24.40625 0 C 32.117188 0 37.035156 -5.015625 37.035156 -12.125 C 37.035156 -18.28125 33.480469 -21.992188 28.214844 -23.324219 Z M 28.433594 -32.496094 C 28.433594 -28.433594 25.675781 -25.101562 21.582031 -25.101562 L 12.503906 -25.101562 L 12.503906 -39.703125 L 20.53125 -39.703125 C 25.484375 -39.703125 28.433594 -36.558594 28.433594 -32.496094 Z M 23.453125 -5.046875 L 12.503906 -5.046875 L 12.503906 -20.40625 L 23.039062 -20.40625 C 28.402344 -20.40625 31.515625 -17.042969 31.515625 -12.695312 C 31.515625 -8.570312 28.5625 -5.046875 23.453125 -5.046875 Z M 23.453125 -5.046875"/></g><g id="e"><path id="path5" d="M 26.148438 0.601562 C 38.621094 0.601562 48.332031 -8.0625 48.332031 -22.375 C 48.332031 -36.625 38.621094 -45.285156 26.148438 -45.285156 C 13.550781 -45.285156 3.902344 -36.625 3.902344 -22.375 C 3.902344 -8.0625 13.550781 0.601562 26.148438 0.601562 Z M 26.148438 -4.761719 C 16.882812 -4.761719 9.550781 -11.109375 9.550781 -22.375 C 9.550781 -33.511719 16.882812 -39.859375 26.148438 -39.859375 C 35.355469 -39.859375 42.652344 -33.511719 42.652344 -22.375 C 42.652344 -11.109375 35.355469 -4.761719 26.148438 -4.761719 Z M 26.148438 -4.761719"/></g><g id="f"><path id="path8" d="M 7.011719 0 L 12.695312 0 L 12.695312 -44.683594 L 7.011719 -44.683594 Z M 7.011719 0"/></g><g id="g"><path id="path11" d="M 32.054688 -42.019531 C 29.449219 -43.828125 25.769531 -44.683594 20.753906 -44.683594 L 7.011719 -44.683594 L 7.011719 0 L 12.695312 0 L 12.695312 -17.359375 L 20.753906 -17.359375 C 25.929688 -17.359375 29.703125 -18.4375 32.308594 -20.691406 C 35.355469 -23.039062 36.84375 -26.878906 36.84375 -31.703125 C 36.84375 -36.527344 35.257812 -39.957031 32.054688 -42.019531 Z M 28.753906 -24.753906 C 26.945312 -22.914062 24.023438 -22.308594 20.023438 -22.308594 L 12.695312 -22.308594 L 12.695312 -39.765625 L 20.023438 -39.765625 C 23.929688 -39.765625 26.753906 -39.351562 28.65625 -37.796875 C 30.148438 -36.558594 31.039062 -34.527344 31.039062 -31.480469 C 31.039062 -28.308594 30.210938 -26.183594 28.753906 -24.753906 Z M 28.753906 -24.753906"/></g><g id="h"><path id="path14" d="M 21.484375 -23.390625 L 39.035156 -44.683594 L 32.054688 -44.683594 L 16.566406 -25.800781 L 12.695312 -25.800781 L 12.695312 -44.683594 L 7.011719 -44.683594 L 7.011719 0 L 12.695312 0 L 12.695312 -20.660156 L 16.566406 -20.660156 L 32.6875 0 L 39.988281 0 Z M 21.484375 -23.390625"/></g><g id="i"><path id="path17" d="M 35.703125 0 L 41.636719 0 L 25.167969 -44.683594 L 18.375 -44.683594 L 1.902344 0 L 7.839844 0 L 11.648438 -10.695312 L 31.863281 -10.695312 Z M 13.457031 -15.710938 L 21.769531 -38.972656 L 30.085938 -15.710938 Z M 13.457031 -15.710938"/></g><clipPath id="a"><path id="path20" d="M 90.042969 91 L 285 91 L 285 233 L 90.042969 233 Z M 90.042969 91"/></clipPath><clipPath id="b"><path id="path23" d="M 90.042969 194 L 192 194 L 192 284 L 90.042969 284 Z M 90.042969 194"/></clipPath><clipPath id="c"><path id="path26" d="M 183 196 L 280 196 L 280 291.890625 L 183 291.890625 Z M 183 196"/></clipPath></defs><path id="path37" fill="#14213d" d="M 0.50083558,15.740248 H 375.50084 V 341.99024 H 0.50083558 Z m 0,0"/><g id="g41" clip-path="url(#a)" transform="translate(0.50083558,-33.298814)"><path id="path39" fill="#fff" d="m 95.546875,163.19922 c -0.02344,0.13281 -0.05469,0.26562 -0.101563,0.39844 0.04688,-0.13282 0.07813,-0.26563 0.101563,-0.39844 z m 0.02344,-0.16406 c 0,0.24218 0.03125,1.07421 0.324219,2.19531 0.601563,2.26562 2.152344,4.3125 4.277346,5.60937 L 183.25,221.50781 c -0.13281,-0.82422 -0.19531,-1.66015 -0.19531,-2.52344 0,-8.16015 3.52343,-13.78906 11.78906,-18.83984 l 79.09375,-48.25781 c 1.03906,-0.63281 1.14844,-1.69141 1.14844,-2.11719 0,-0.42187 -0.10938,-1.47266 -1.14844,-2.11719 L 189.93359,96.394531 105.04297,148.19531 c -6.894532,4.20313 -9.457032,8.15625 -9.457032,14.57031 0,0.0898 -0.0078,0.1836 -0.01563,0.26954 z m 98.359375,69.125 c -1.74219,0 -3.42578,-0.46875 -4.97657,-1.41797 -0.3125,-0.19922 -0.61718,-0.40235 -0.91015,-0.62891 L 97.835938,175.09766 c -3.210938,-1.95313 -5.492188,-4.9961 -6.433594,-8.55079 -0.460938,-1.77343 -0.554688,-2.98046 -0.476563,-3.80468 0.0078,-8.14844 3.535157,-13.77344 11.792969,-18.81641 l 86.04687,-52.503905 c 0.71875,-0.441406 1.60547,-0.441406 2.32813,0 l 85.16797,51.972655 c 2.1875,1.33203 3.48828,3.71484 3.48828,6.375 0,2.66016 -1.30078,5.05078 -3.48828,6.37891 l -79.08203,48.26172 c -6.90235,4.21093 -9.46485,8.15625 -9.46485,14.57421 0,2.91016 1.13672,5.58985 2.95313,7.0586 0.0391,0.0312 0.0859,0.0625 0.125,0.10156 0.15625,0.11719 0.32422,0.22656 0.48828,0.32813 1.84766,1.1289 4.04297,0.98828 6.33594,-0.41407 l 79.99218,-48.8125 -6.49218,-4.46875 c -1.07422,-0.73828 -1.37891,-2.26953 -0.6836,-3.40625 0.70703,-1.13672 2.14844,-1.45703 3.22657,-0.71484 l 9.66796,6.66016 c 0.6836,0.46484 1.08204,1.27343 1.0586,2.125 -0.0234,0.85546 -0.46094,1.64062 -1.16797,2.0625 l -83.26563,50.82031 c -2.0039,1.22656 -4.05078,1.83594 -6.02343,1.83594"/></g><path id="path43" fill="#fff" d="m 233.36021,229.86915 c -0.80859,0 -1.58984,-0.44141 -2.02344,-1.23437 -0.64062,-1.17579 -0.25781,-2.67969 0.85547,-3.36329 l 45.91797,-28.01953 -6.49219,-4.46875 c -1.07421,-0.74609 -1.3789,-2.26562 -0.68359,-3.41406 0.70703,-1.13672 2.14844,-1.45703 3.22656,-0.71094 l 9.66797,6.66016 c 0.6836,0.46875 1.08203,1.27734 1.0586,2.13281 -0.0234,0.85547 -0.46094,1.62891 -1.16797,2.0625 l -49.19922,30.02344 c -0.3711,0.23047 -0.76953,0.33203 -1.16016,0.33203"/><g id="g47" clip-path="url(#b)" transform="translate(0.50083558,-33.298814)"><path id="path45" fill="#fff" d="m 95.546875,216.50391 c -0.02344,0.13281 -0.05469,0.26562 -0.101563,0.39453 0.04688,-0.12891 0.07813,-0.26172 0.101563,-0.39453 z m 93.789065,67.32421 c -0.39844,0 -0.79688,-0.10937 -1.16797,-0.33203 L 97.835938,228.40234 c -3.210938,-1.96093 -5.492188,-4.99609 -6.433594,-8.55468 -0.460938,-1.77344 -0.554688,-2.97266 -0.476563,-3.79688 0.0078,-8.13672 3.519531,-13.75781 11.738279,-18.78516 l 3.91407,-2.6914 c 1.08203,-0.73828 2.52343,-0.41797 3.23046,0.72265 0.69532,1.14454 0.39063,2.66407 -0.6914,3.41016 l -3.96485,2.72266 c -0.0391,0.0234 -0.0703,0.0391 -0.10937,0.0625 -6.894532,4.21093 -9.457032,8.16406 -9.457032,14.57422 0,0.0937 -0.0078,0.17968 -0.01563,0.27343 0,0.23438 0.03125,1.07422 0.324219,2.1875 0.601563,2.27735 2.152344,4.32422 4.277353,5.60938 l 90.33203,55.09375 c 1.11328,0.68359 1.49609,2.1875 0.84765,3.36719 -0.42578,0.78906 -1.21484,1.23046 -2.01562,1.23046"/></g><g id="g51" clip-path="url(#c)" transform="translate(0.50083558,-33.298814)"><path id="path49" fill="#fff" d="m 216.94531,291.89062 c -0.39062,0 -0.78906,-0.10937 -1.14453,-0.32031 -0.72656,-0.43359 -1.17969,-1.25781 -1.17969,-2.14453 v -14.64062 l -14.68359,8.84765 c -3.75391,2.28906 -7.66406,2.4375 -10.98438,0.40625 -3.63671,-2.21875 -5.89843,-6.72265 -5.89843,-11.75 0,-8.16406 3.52343,-13.79687 11.78906,-18.83984 L 273.9375,205.1875 c 1.03906,-0.63672 1.14844,-1.6875 1.14844,-2.11328 0,-0.42969 -0.10938,-1.48047 -1.14844,-2.11719 -1.11328,-0.67969 -1.49609,-2.1875 -0.85547,-3.36328 0.64063,-1.17578 2.07031,-1.57813 3.17969,-0.90234 2.1875,1.33203 3.48828,3.71875 3.48828,6.38281 0,2.66015 -1.30078,5.04687 -3.48828,6.3789 l -79.08203,48.26172 c -6.90235,4.20313 -9.46485,8.15625 -9.46485,14.57422 0,3.22266 1.39453,6.16406 3.56641,7.49219 1.84766,1.12891 4.04297,0.98828 6.33594,-0.41797 l 18.17578,-10.94922 c 0.72265,-0.4375 1.60937,-0.42969 2.32812,0.008 0.71485,0.44141 1.16016,1.25391 1.16016,2.125 v 14.54297 l 11.24219,-7.12109 v -17.26563 c 0,-3.41015 -1.7461,-6.58593 -4.55078,-8.28125 -1.1211,-0.67578 -1.50391,-2.17968 -0.8711,-3.35937 0.63672,-1.18359 2.0625,-1.58984 3.17578,-0.91797 4.26172,2.56641 6.91016,7.38281 6.91016,12.55859 v 18.66016 c 0,0.87109 -0.43359,1.67188 -1.13672,2.10938 l -15.90625,10.0664 c -0.36719,0.23438 -0.78125,0.35156 -1.19922,0.35156"/></g><path id="path53" fill="#fff" d="m 175.88365,157.1504 c -0.38281,0 -0.76563,-0.10156 -1.12891,-0.31641 l -71.49609,-41.92187 c -1.12891,-0.66015 -1.53907,-2.16015 -0.91016,-3.34375 0.61719,-1.1914 2.03516,-1.62109 3.16407,-0.96484 l 71.5,41.92578 c 1.1289,0.66015 1.53515,2.15625 0.91015,3.34765 -0.42578,0.8086 -1.22265,1.27344 -2.03906,1.27344"/><path id="path55" fill="#14213d" d="m 145.94224,98.767592 h 88.97657 L 190.43443,71.619155 Z m 0,0"/><path id="path57" fill="#ff914d" d="m 246.79381,97.13478 c -1.6211,-12.78125 -10.69922,-14.941406 -13.23438,-15.296875 0.69531,-0.320313 1.99609,-1.71875 4.21875,-6.707031 3.73438,-8.375 -4.59766,-19.613282 -3.47266,-23.410157 1.1211,-3.796875 0.32813,-6.675781 0.32813,-6.675781 0,0 3.44141,-6.242188 -1.24219,-12.425781 -4.67969,-6.183594 -9.71094,-4.156251 -25.13281,14.308593 -15.42188,18.460938 -21.62109,53.140622 -21.62109,53.140622 0,0 -0.082,0.59766 -0.0508,1.64454 -0.16406,-0.23438 -0.2539,-0.35938 -0.2539,-0.35938 l -1.82422,-1.31641 c 0.26562,-0.292965 0.44531,-0.664059 0.50391,-1.082028 0.14062,-1.015625 -0.48438,-1.953125 -1.4336,-2.246094 2.72656,-27.074218 7.04688,-31.074218 7.04688,-31.074218 -7.46875,5.816406 -8.14453,30.894531 -8.14453,30.894531 l 0.23437,0.105469 c -0.57031,0.07031 -1.08203,0.378906 -1.41016,0.832031 -0.0781,-0.01953 -0.15625,-0.03516 -0.23437,-0.04687 -0.11719,-0.01563 -0.23438,-0.01953 -0.34766,-0.01563 -0.43359,-2.203125 -5.03515,-24.699219 -12.92578,-29.03125 0,0 4.87891,3.246094 11.85156,29.371094 -0.33984,0.226562 -0.60937,0.550781 -0.76562,0.941406 -11.79297,-11.746094 -45.59766,-43.960937 -64.14063,-46.53125 0,0 -14.47656,-2.597656 3.92579,17.347656 18.39843,19.941407 17.43359,34.039063 30.32421,35.234373 0,0 -10.71875,11.95703 20.91797,36.89844 26.08203,20.5625 25.07422,-9.25391 20.30078,-23.84375 l 3.33594,3.72265 c 0.56641,8.21094 6.0586,13.13281 6.0586,13.13281 2.28906,-2.38281 0.99218,-7.66015 -1.51954,-13.32812 0.69141,0.53516 1.42188,1.06641 2.19922,1.59375 15.36719,10.43359 28.19922,9.39453 31.4336,8.70312 3.23437,-0.6875 6.52343,-4.23437 6.52343,-4.23437 0,0 10.44141,-15.35546 8.55079,-30.24609"/><g id="g61" fill="#fff" transform="translate(0.50083558,-33.298814)"><use id="use59" width="100%" height="100%" x="45.566" y="343.659" xlink:actuate="onLoad" xlink:href="#d" xlink:show="embed" xlink:type="simple"/></g><g id="g65" fill="#fff" transform="translate(0.50083558,-33.298814)"><use id="use63" width="100%" height="100%" x="86.155" y="343.659" xlink:actuate="onLoad" xlink:href="#e" xlink:show="embed" xlink:type="simple"/></g><g id="g69" fill="#fff" transform="translate(0.50083558,-33.298814)"><use id="use67" width="100%" height="100%" x="138.39" y="343.659" xlink:actuate="onLoad" xlink:href="#f" xlink:show="embed" xlink:type="simple"/></g><g id="g73" fill="#fff" transform="translate(0.50083558,-33.298814)"><use id="use71" width="100%" height="100%" x="158.097" y="343.659" xlink:actuate="onLoad" xlink:href="#g" xlink:show="embed" xlink:type="simple"/></g><g id="g77" fill="#fff" transform="translate(0.50083558,-33.298814)"><use id="use75" width="100%" height="100%" x="197.987" y="343.659" xlink:actuate="onLoad" xlink:href="#e" xlink:show="embed" xlink:type="simple"/></g><g id="g81" fill="#fff" transform="translate(0.50083558,-33.298814)"><use id="use79" width="100%" height="100%" x="250.222" y="343.659" xlink:actuate="onLoad" xlink:href="#h" xlink:show="embed" xlink:type="simple"/></g><g id="g85" fill="#fff" transform="translate(0.50083558,-33.298814)"><use id="use83" width="100%" height="100%" x="291.921" y="343.659" xlink:actuate="onLoad" xlink:href="#i" xlink:show="embed" xlink:type="simple"/></g></svg>