<svg xmlns="http://www.w3.org/2000/svg" xmlns:svg="http://www.w3.org/2000/svg" id="svg12" width="375" height="375" contentScriptType="text/ecmascript" contentStyleType="text/css" preserveAspectRatio="xMidYMid meet" version="1.0" viewBox="0 0 375 375" zoomAndPan="magnify"><path id="path10" fill="#6CE5E8" fill-opacity="1" fill-rule="nonzero" d="M 210.9375 96.726562 C 212.6875 97.179688 214.425781 97.683594 216.148438 98.234375 C 217.871094 98.789062 219.578125 99.390625 221.265625 100.042969 C 222.953125 100.691406 224.621094 101.394531 226.269531 102.140625 C 227.914062 102.890625 229.539062 103.683594 231.140625 104.527344 C 232.742188 105.371094 234.316406 106.257812 235.867188 107.191406 C 237.417969 108.125 238.9375 109.101562 240.433594 110.121094 C 241.925781 111.144531 243.386719 112.207031 244.820312 113.316406 C 246.25 114.421875 247.648438 115.566406 249.015625 116.753906 C 250.382812 117.941406 251.710938 119.167969 253.003906 120.433594 C 254.300781 121.695312 255.554688 122.996094 256.773438 124.332031 C 257.996094 125.671875 259.171875 127.042969 260.3125 128.445312 C 261.453125 129.851562 262.550781 131.289062 263.609375 132.757812 C 264.664062 134.226562 265.675781 135.726562 266.648438 137.253906 C 267.617188 138.78125 268.542969 140.332031 269.421875 141.914062 C 270.300781 143.496094 271.132812 145.101562 271.921875 146.730469 C 272.707031 148.359375 273.445312 150.011719 274.136719 151.683594 C 274.828125 153.355469 275.472656 155.042969 276.066406 156.753906 C 276.660156 158.464844 277.203125 160.1875 277.695312 161.929688 C 278.1875 163.667969 278.632812 165.421875 279.023438 167.1875 C 279.414062 168.957031 279.757812 170.730469 280.046875 172.519531 C 280.335938 174.304688 280.570312 176.097656 280.757812 177.894531 C 280.941406 179.695312 281.074219 181.5 281.15625 183.308594 C 281.238281 185.113281 281.265625 186.921875 281.242188 188.730469 C 281.21875 190.542969 281.140625 192.347656 281.011719 194.152344 C 280.886719 195.957031 280.703125 197.757812 280.472656 199.550781 C 280.238281 201.34375 279.957031 203.132812 279.621094 204.910156 C 279.285156 206.6875 278.894531 208.453125 278.457031 210.210938 C 278.019531 211.964844 277.53125 213.707031 276.992188 215.433594 C 276.453125 217.160156 275.863281 218.871094 275.226562 220.5625 C 274.589844 222.257812 273.902344 223.929688 273.167969 225.582031 C 272.433594 227.234375 271.648438 228.867188 270.820312 230.476562 C 269.992188 232.082031 269.117188 233.664062 268.195312 235.222656 C 267.273438 236.78125 266.308594 238.308594 265.296875 239.8125 C 264.289062 241.3125 263.238281 242.78125 262.140625 244.222656 C 261.046875 245.664062 259.914062 247.070312 258.734375 248.445312 C 257.558594 249.820312 256.34375 251.160156 255.089844 252.464844 C 253.835938 253.769531 252.546875 255.035156 251.21875 256.265625 C 249.890625 257.496094 248.53125 258.6875 247.136719 259.835938 C 245.738281 260.988281 244.3125 262.097656 242.851562 263.167969 C 241.390625 264.234375 239.898438 265.257812 238.378906 266.242188 C 236.859375 267.222656 235.3125 268.160156 233.738281 269.054688 C 232.167969 269.945312 230.566406 270.792969 228.945312 271.589844 C 227.320312 272.390625 225.675781 273.144531 224.011719 273.847656 C 222.34375 274.554688 220.660156 275.207031 218.953125 275.816406 C 217.25 276.421875 215.53125 276.980469 213.792969 277.488281 C 212.054688 277.996094 210.308594 278.453125 208.542969 278.859375 C 206.78125 279.265625 205.007812 279.617188 203.222656 279.921875 C 201.441406 280.226562 199.648438 280.476562 197.851562 280.675781 C 196.050781 280.875 194.25 281.023438 192.441406 281.121094 C 190.636719 281.214844 188.828125 281.257812 187.019531 281.25 C 185.210938 281.238281 183.402344 281.179688 181.597656 281.0625 C 179.789062 280.949219 177.988281 280.785156 176.195312 280.566406 C 174.398438 280.347656 172.609375 280.078125 170.828125 279.757812 C 169.046875 279.433594 167.277344 279.0625 165.519531 278.636719 C 163.761719 278.210938 162.015625 277.738281 160.285156 277.214844 C 158.554688 276.6875 156.839844 276.113281 155.140625 275.488281 C 153.441406 274.863281 151.765625 274.191406 150.105469 273.46875 C 148.445312 272.746094 146.808594 271.976562 145.195312 271.160156 C 143.578125 270.34375 141.988281 269.484375 140.425781 268.574219 C 138.859375 267.664062 137.324219 266.714844 135.8125 265.714844 C 134.304688 264.71875 132.824219 263.675781 131.375 262.59375 C 129.925781 261.511719 128.511719 260.386719 127.125 259.222656 C 125.742188 258.058594 124.394531 256.851562 123.078125 255.609375 C 121.765625 254.367188 120.488281 253.085938 119.246094 251.769531 C 118.824219 251.320312 118.425781 250.855469 118.050781 250.367188 C 117.675781 249.882812 117.328125 249.378906 117 248.859375 C 116.675781 248.339844 116.375 247.800781 116.101562 247.253906 C 115.828125 246.703125 115.585938 246.140625 115.367188 245.566406 C 115.148438 244.992188 114.960938 244.410156 114.796875 243.816406 C 114.636719 243.222656 114.507812 242.625 114.40625 242.019531 C 114.304688 241.414062 114.230469 240.804688 114.191406 240.191406 C 114.148438 239.578125 114.136719 238.964844 114.15625 238.351562 C 114.171875 237.738281 114.222656 237.125 114.300781 236.515625 C 114.378906 235.90625 114.488281 235.304688 114.625 234.707031 C 114.761719 234.109375 114.929688 233.515625 115.125 232.933594 C 115.320312 232.351562 115.546875 231.78125 115.796875 231.222656 C 116.050781 230.664062 116.328125 230.117188 116.632812 229.582031 C 116.941406 229.050781 117.269531 228.535156 117.628906 228.035156 C 117.984375 227.535156 118.363281 227.050781 118.765625 226.589844 C 119.171875 226.128906 119.597656 225.683594 120.042969 225.265625 C 120.488281 224.84375 120.957031 224.445312 121.441406 224.070312 C 121.929688 223.695312 122.433594 223.34375 122.953125 223.019531 C 123.472656 222.691406 124.007812 222.394531 124.558594 222.121094 C 125.109375 221.847656 125.671875 221.601562 126.246094 221.382812 C 126.820312 221.167969 127.402344 220.976562 127.996094 220.816406 C 128.589844 220.65625 129.1875 220.523438 129.792969 220.421875 C 130.398438 220.320312 131.007812 220.25 131.621094 220.207031 C 132.234375 220.167969 132.847656 220.15625 133.460938 220.171875 C 134.074219 220.191406 134.6875 220.242188 135.292969 220.320312 C 135.902344 220.398438 136.507812 220.503906 137.105469 220.644531 C 137.703125 220.78125 138.292969 220.949219 138.875 221.144531 C 139.457031 221.339844 140.03125 221.5625 140.589844 221.816406 C 141.148438 222.066406 141.695312 222.347656 142.230469 222.652344 C 142.761719 222.957031 143.277344 223.289062 143.777344 223.644531 C 144.277344 224 144.757812 224.382812 145.222656 224.785156 C 145.683594 225.1875 146.125 225.613281 146.546875 226.0625 C 147.292969 226.851562 148.058594 227.621094 148.847656 228.367188 C 149.636719 229.113281 150.445312 229.835938 151.277344 230.535156 C 152.105469 231.230469 152.957031 231.90625 153.824219 232.558594 C 154.695312 233.207031 155.582031 233.832031 156.488281 234.429688 C 157.394531 235.027344 158.316406 235.597656 159.253906 236.144531 C 160.195312 236.691406 161.148438 237.207031 162.117188 237.695312 C 163.085938 238.1875 164.066406 238.648438 165.0625 239.082031 C 166.058594 239.515625 167.066406 239.917969 168.085938 240.292969 C 169.101562 240.667969 170.132812 241.011719 171.171875 241.328125 C 172.210938 241.644531 173.257812 241.925781 174.3125 242.183594 C 175.367188 242.4375 176.429688 242.660156 177.496094 242.855469 C 178.566406 243.046875 179.640625 243.207031 180.714844 243.339844 C 181.792969 243.46875 182.875 243.570312 183.957031 243.636719 C 185.042969 243.707031 186.125 243.742188 187.210938 243.75 C 188.296875 243.753906 189.382812 243.730469 190.464844 243.671875 C 191.550781 243.613281 192.632812 243.527344 193.710938 243.40625 C 194.789062 243.285156 195.863281 243.136719 196.933594 242.953125 C 198.003906 242.769531 199.066406 242.558594 200.125 242.316406 C 201.183594 242.070312 202.234375 241.796875 203.277344 241.492188 C 204.316406 241.1875 205.351562 240.855469 206.371094 240.488281 C 207.394531 240.125 208.40625 239.730469 209.40625 239.308594 C 210.40625 238.886719 211.394531 238.433594 212.367188 237.953125 C 213.339844 237.476562 214.300781 236.96875 215.246094 236.433594 C 216.1875 235.894531 217.117188 235.335938 218.027344 234.746094 C 218.941406 234.15625 219.835938 233.539062 220.710938 232.898438 C 221.585938 232.257812 222.441406 231.59375 223.28125 230.902344 C 224.117188 230.210938 224.933594 229.496094 225.730469 228.761719 C 226.527344 228.023438 227.300781 227.261719 228.054688 226.480469 C 228.808594 225.695312 229.535156 224.894531 230.242188 224.066406 C 230.949219 223.242188 231.628906 222.398438 232.285156 221.535156 C 232.941406 220.667969 233.574219 219.789062 234.179688 218.886719 C 234.785156 217.984375 235.363281 217.066406 235.917969 216.132812 C 236.46875 215.199219 236.996094 214.25 237.492188 213.285156 C 237.988281 212.320312 238.460938 211.339844 238.898438 210.351562 C 239.339844 209.359375 239.753906 208.355469 240.136719 207.339844 C 240.519531 206.320312 240.871094 205.296875 241.195312 204.261719 C 241.519531 203.222656 241.8125 202.179688 242.074219 201.125 C 242.335938 200.074219 242.570312 199.011719 242.773438 197.945312 C 242.972656 196.878906 243.144531 195.808594 243.285156 194.730469 C 243.421875 193.652344 243.53125 192.574219 243.609375 191.492188 C 243.683594 190.410156 243.730469 189.324219 243.746094 188.238281 C 243.757812 187.152344 243.742188 186.070312 243.695312 184.984375 C 243.644531 183.898438 243.566406 182.816406 243.453125 181.738281 C 243.34375 180.65625 243.199219 179.582031 243.027344 178.511719 C 242.855469 177.4375 242.648438 176.375 242.414062 175.3125 C 242.179688 174.253906 241.914062 173.203125 241.617188 172.15625 C 241.320312 171.113281 240.996094 170.078125 240.640625 169.050781 C 240.28125 168.027344 239.898438 167.011719 239.484375 166.007812 C 239.066406 165.007812 238.625 164.015625 238.152344 163.039062 C 237.679688 162.058594 237.179688 161.097656 236.652344 160.148438 C 236.125 159.199219 235.570312 158.269531 234.988281 157.351562 C 234.40625 156.433594 233.796875 155.535156 233.164062 154.65625 C 232.53125 153.773438 231.871094 152.910156 231.1875 152.066406 C 230.503906 151.226562 229.796875 150.402344 229.066406 149.601562 C 228.332031 148.796875 227.578125 148.015625 226.804688 147.257812 C 226.027344 146.5 225.230469 145.765625 224.410156 145.054688 C 223.589844 144.339844 222.75 143.652344 221.890625 142.988281 C 221.03125 142.324219 220.15625 141.6875 219.257812 141.074219 C 218.363281 140.460938 217.449219 139.875 216.519531 139.3125 C 215.589844 138.753906 214.644531 138.222656 213.683594 137.714844 C 212.722656 137.210938 211.75 136.734375 210.761719 136.285156 C 209.773438 135.835938 208.773438 135.414062 207.757812 135.023438 C 206.746094 134.632812 205.722656 134.273438 204.691406 133.941406 C 203.65625 133.609375 202.613281 133.308594 201.5625 133.035156 C 200.96875 132.882812 200.382812 132.699219 199.804688 132.488281 C 199.230469 132.277344 198.664062 132.039062 198.109375 131.773438 C 197.558594 131.507812 197.019531 131.214844 196.496094 130.894531 C 195.96875 130.574219 195.460938 130.230469 194.972656 129.859375 C 194.480469 129.492188 194.011719 129.097656 193.558594 128.683594 C 193.105469 128.265625 192.675781 127.832031 192.265625 127.371094 C 191.855469 126.914062 191.472656 126.4375 191.109375 125.941406 C 190.746094 125.445312 190.410156 124.933594 190.097656 124.402344 C 189.785156 123.875 189.5 123.332031 189.242188 122.773438 C 188.984375 122.21875 188.753906 121.648438 188.550781 121.070312 C 188.347656 120.492188 188.175781 119.902344 188.03125 119.304688 C 187.882812 118.707031 187.769531 118.105469 187.683594 117.5 C 187.597656 116.890625 187.542969 116.28125 187.515625 115.664062 C 187.492188 115.050781 187.496094 114.4375 187.53125 113.824219 C 187.5625 113.210938 187.628906 112.601562 187.722656 111.996094 C 187.816406 111.390625 187.941406 110.789062 188.09375 110.195312 C 188.25 109.597656 188.429688 109.015625 188.640625 108.4375 C 188.851562 107.859375 189.09375 107.296875 189.359375 106.742188 C 189.625 106.1875 189.917969 105.648438 190.238281 105.125 C 190.558594 104.601562 190.902344 104.09375 191.269531 103.601562 C 191.640625 103.113281 192.03125 102.640625 192.449219 102.191406 C 192.863281 101.738281 193.300781 101.308594 193.757812 100.898438 C 194.21875 100.488281 194.695312 100.101562 195.191406 99.742188 C 195.6875 99.378906 196.199219 99.042969 196.726562 98.730469 C 197.257812 98.417969 197.800781 98.132812 198.355469 97.875 C 198.914062 97.617188 199.480469 97.386719 200.0625 97.183594 C 200.640625 96.980469 201.230469 96.804688 201.824219 96.660156 C 202.421875 96.515625 203.023438 96.402344 203.632812 96.316406 C 204.242188 96.230469 204.851562 96.171875 205.464844 96.148438 C 206.078125 96.121094 206.691406 96.125 207.304688 96.160156 C 207.917969 96.195312 208.527344 96.261719 209.136719 96.355469 C 209.742188 96.449219 210.34375 96.574219 210.9375 96.726562 Z M 210.9375 96.726562" style="fill:#14213d;fill-opacity:1"/></svg>